<svg width="219" height="75" viewBox="0 0 219 75" fill="none" xmlns="http://www.w3.org/2000/svg">
<path d="M14.4545 38.5397C15.647 33.9708 16.8395 29.4323 18.032 24.8938C19.4453 19.5204 20.8586 14.1623 22.2425 8.78892C22.375 8.28802 22.5517 8.10587 23.0817 8.10587C24.7747 8.13623 26.4677 8.15141 28.1608 8.10587C28.7055 8.09069 28.9116 8.25766 29.0588 8.8041C31.2966 17.365 33.5638 25.926 35.8162 34.4869C36.1696 35.8226 36.5229 37.1584 36.8909 38.5397C37.2001 38.2361 37.2001 37.8566 37.2884 37.5379C39.747 28.0662 42.2203 18.5642 44.6642 9.06215C44.8556 8.31838 45.1353 8.07551 45.9008 8.10587C47.4614 8.18177 49.0366 8.16659 50.6119 8.12105C51.2891 8.10587 51.4216 8.2273 51.2302 8.94071C48.4036 19.4901 45.6064 30.0395 42.8092 40.5888C41.9995 43.655 41.175 46.7211 40.3801 49.8025C40.2476 50.3337 40.012 50.4552 39.5115 50.44C37.8184 50.4096 36.1254 50.3944 34.4324 50.44C33.8435 50.4552 33.5932 50.2882 33.4313 49.6659C30.958 40.012 28.4699 30.3734 25.9672 20.7196C25.9083 20.4767 25.8347 20.249 25.7022 19.7937C25.3047 21.3116 24.9514 22.617 24.6128 23.9223C22.3603 32.5288 20.0931 41.1505 17.8553 49.7569C17.7228 50.2578 17.5167 50.44 17.0015 50.4248C15.2348 50.3944 13.4682 50.3944 11.7015 50.4248C11.2451 50.4248 11.0685 50.273 10.9507 49.8328C7.34381 36.1566 3.70746 22.4652 0.0563975 8.77374C-0.105545 8.15141 0.0858416 8.13623 0.571669 8.13623C2.2647 8.15141 3.95774 8.16659 5.65077 8.13623C6.22493 8.12105 6.44576 8.28802 6.59298 8.88C8.27129 15.4221 9.97905 21.9643 11.6868 28.5064C12.5112 31.6788 13.3357 34.8512 14.1748 38.0236C14.219 38.1602 14.2043 38.3575 14.4545 38.5397Z" fill="#252122"/>
<path d="M146.526 23.6643C147.748 22.1768 148.69 20.4919 149.632 18.807C151.178 16.0141 152.577 13.1453 153.004 9.89699C153.18 8.5916 153.136 7.31657 152.503 6.13261C151.546 4.34149 149.897 3.85576 148.087 3.76469C145.392 3.64326 142.846 4.38703 140.343 5.29777C134.704 7.39246 129.537 10.4283 124.531 13.7676C122.971 14.815 121.44 15.9079 119.894 16.9856C119.82 15.923 119.835 14.8757 119.894 13.8132C121.705 12.614 123.501 11.3845 125.341 10.2157C131.068 6.5728 136.986 3.3245 143.479 1.3057C145.967 0.531572 148.514 -0.0148704 151.134 0.000308511C152.15 0.000308511 153.136 0.152098 154.108 0.455677C156.846 1.27534 158.51 3.44593 158.657 6.39065C158.819 9.63895 157.847 12.6292 156.611 15.5436C154.726 19.991 152.165 24.0286 149.397 27.9296C149.176 28.2332 148.911 28.5064 148.808 28.8859C148.381 29.1743 148.175 29.6296 147.866 30.0243C146.202 32.0886 144.553 34.1681 142.89 36.2477C142.374 36.8245 141.844 37.3861 141.329 37.9629C139.18 40.3915 136.898 42.6835 134.66 45.0059C133.556 46.0381 132.481 47.0854 131.362 48.0873C129.287 49.9543 127.196 51.8061 125.12 53.6731C122.22 55.9955 119.334 58.3482 116.316 60.5036C109.824 65.1636 103.081 69.353 95.6908 72.3584C92.7906 73.5424 89.8315 74.5442 86.7104 74.8478C84.7376 75.0451 82.7502 75.1665 80.8216 74.4531C78.2894 73.512 76.9644 71.5995 76.7436 68.8824C76.508 66.0136 77.2883 63.3269 78.3041 60.701C79.7174 57.0428 81.6313 53.6731 83.766 50.4248C84.7376 50.4552 85.724 50.5007 86.6957 50.5311C85.2382 52.9293 83.7513 55.3124 82.6471 57.908C81.8227 59.851 81.0718 61.8394 80.9982 64.01C80.8952 67.3494 82.5735 69.2164 85.8271 69.3682C88.6537 69.5048 91.3184 68.7306 93.9242 67.7592C100.093 65.452 105.702 62.0519 111.134 58.3179C115.889 55.0544 120.409 51.457 124.767 47.6471C124.914 47.5105 125.047 47.3587 125.179 47.2221C126.092 46.5845 126.872 45.7801 127.682 45.0363C129.036 43.7764 130.435 42.5621 131.657 41.1656C131.848 41.0139 132.04 40.8621 132.216 40.6951C134.174 38.7522 136.103 36.7638 137.928 34.6842C139.401 33.0297 140.902 31.4056 142.198 29.5841C143.228 28.5216 144.053 27.3073 144.921 26.1233C145.481 25.3036 146.129 24.575 146.526 23.6643Z" fill="#EEB314"/>
<path d="M54.3808 29.2957C54.3808 22.5411 54.3955 15.7864 54.3661 9.04697C54.3661 8.36392 54.5574 8.19695 55.1758 8.16659C56.8394 8.07552 58.5029 7.92373 60.1518 7.75676C60.6965 7.69604 60.8732 7.81747 60.8585 8.40945C60.8143 12.6596 60.9026 16.9097 60.7701 21.1598C60.7407 22.025 60.7554 22.0402 61.5357 21.7366C64.4212 20.6437 67.3951 20.0973 70.472 20.3098C74.02 20.5374 76.3019 22.3893 77.3472 25.8956C77.9066 27.8082 78.0538 29.7662 78.0685 31.7395C78.0685 37.7656 78.0685 43.7764 78.0833 49.8025C78.0833 50.3489 77.9213 50.4704 77.4208 50.4704C75.7277 50.44 74.0347 50.4248 72.3417 50.4704C71.7381 50.4855 71.5614 50.3186 71.5614 49.681C71.5908 44.0193 71.5761 38.3575 71.5761 32.6806C71.5761 31.8913 71.5467 31.1172 71.4142 30.3431C70.9725 27.7778 69.6328 26.4876 67.1153 26.2599C65.0984 26.0778 63.1698 26.4421 61.2412 26.9885C60.7996 27.1099 60.829 27.4135 60.829 27.7474C60.829 30.3582 60.829 32.9538 60.829 35.5646C60.829 40.3004 60.8143 45.0211 60.8437 49.7569C60.8437 50.3186 60.7112 50.4855 60.1518 50.4704C58.4588 50.44 56.7657 50.44 55.0727 50.4704C54.4986 50.4855 54.3366 50.3337 54.3366 49.7266C54.3955 42.9112 54.3808 36.0959 54.3808 29.2957Z" fill="#252122"/>
<path d="M152.812 35.6709C152.827 33.394 153.018 31.1324 153.622 28.9162C154.991 23.9223 158.171 21.0991 163.147 20.4312C165.193 20.158 167.255 20.1731 169.286 20.5678C173.615 21.4026 176.412 24.0286 177.604 28.3698C178.87 32.9842 178.914 37.6745 177.766 42.3041C176.456 47.5712 173.026 50.4552 167.77 50.9409C165.959 51.1079 164.148 51.0927 162.352 50.7436C157.553 49.848 154.711 46.8426 153.519 42.046C152.989 39.9665 152.827 37.8263 152.812 35.6709ZM171.921 35.5798C171.921 33.4244 171.833 31.2841 171.141 29.2198C170.479 27.2617 169.242 25.926 167.181 25.592C164.914 25.2277 162.809 25.5617 161.248 27.5198C160.512 28.4305 160.085 29.5234 159.864 30.6618C159.187 34.0164 159.172 37.3861 159.864 40.7406C160.1 41.8942 160.541 42.9568 161.277 43.8675C163.883 47.0551 169.433 46.0988 170.994 42.1978C171.818 40.0879 171.921 37.8415 171.921 35.5798Z" fill="#252122"/>
<path d="M181.8 35.7316C181.829 33.3181 182.006 30.935 182.698 28.6126C184.023 24.1348 186.864 21.4026 191.354 20.5678C193.813 20.1124 196.286 20.1124 198.73 20.6589C202.852 21.5848 205.473 24.2259 206.607 28.3698C207.887 33.0904 207.932 37.8718 206.68 42.6076C205.326 47.7077 201.837 50.531 196.669 50.956C194.755 51.1078 192.856 51.0775 190.957 50.6828C186.791 49.7873 184.082 47.222 182.771 43.0782C182.021 40.6799 181.844 38.2209 181.8 35.7316ZM200.865 35.5494C200.865 34.836 200.909 34.1378 200.865 33.4244C200.762 31.7243 200.556 30.0546 199.849 28.4912C199.157 26.9885 198.038 25.9867 196.448 25.6376C192.738 24.8179 189.956 26.4876 188.984 30.2671C188.071 33.8494 188.13 37.4771 188.94 41.0745C189.234 42.3951 189.823 43.5942 190.854 44.4898C194.019 47.2372 198.995 45.6131 200.261 41.3933C200.836 39.4959 200.924 37.5379 200.865 35.5494Z" fill="#252122"/>
<path d="M218.163 29.0832C218.163 35.9289 218.149 42.7898 218.178 49.6355C218.178 50.3337 217.987 50.4703 217.354 50.4552C215.661 50.4096 213.968 50.4248 212.275 50.4552C211.789 50.4703 211.656 50.3337 211.656 49.8176C211.671 36.1566 211.671 22.5107 211.656 8.84964C211.656 8.33355 211.833 8.21212 212.289 8.18176C213.982 8.06033 215.661 7.9389 217.339 7.75675C217.972 7.68086 218.178 7.80229 218.178 8.5157C218.149 15.3766 218.163 22.2223 218.163 29.0832Z" fill="#252122"/>
<path d="M119.894 13.798C119.835 14.8605 119.835 15.9079 119.894 16.9704C119.879 18.1847 119.864 19.399 119.864 20.6133C119.864 30.2672 119.85 39.9362 119.879 49.59C119.879 50.3034 119.688 50.4704 119.025 50.4552C117.391 50.4096 115.742 50.4096 114.093 50.4552C113.504 50.4704 113.357 50.2882 113.357 49.6962C113.372 40.9228 113.372 32.1493 113.372 23.3759C113.372 18.5642 113.387 13.7676 113.357 8.95589C113.357 8.40945 113.475 8.21212 114.034 8.18176C115.772 8.07551 117.509 7.92372 119.231 7.74157C119.732 7.69604 119.864 7.83265 119.864 8.33355C119.864 10.1702 119.879 11.9917 119.894 13.798Z" fill="#252122"/>
<path d="M142.875 36.2325C144.539 34.153 146.187 32.0886 147.851 30.0091C148.16 29.6296 148.381 29.1591 148.793 28.8707C149.485 31.4815 149.559 34.153 149.456 36.8396C149.367 39.1468 149.014 41.4237 148.19 43.5791C146.467 48.0417 143.273 50.44 138.65 50.8043C136.53 50.9712 134.439 50.7436 132.363 50.3641C131.775 50.2578 131.613 50.3944 131.627 51.0168C131.657 55.0544 131.627 59.1072 131.657 63.1448C131.657 63.7368 131.48 63.9189 130.935 63.9644C129.198 64.1314 127.476 64.3135 125.753 64.5412C125.209 64.6171 125.15 64.4046 125.15 63.9493C125.164 60.792 125.164 57.6348 125.15 54.4624C125.15 54.1892 125.12 53.9008 125.12 53.6276C127.196 51.7605 129.287 49.9087 131.362 48.0417C132.481 47.0247 133.571 45.9774 134.66 44.9604C135.47 44.9756 136.28 45.0211 137.075 44.9756C139.386 44.8238 141.02 43.655 141.903 41.4389C142.551 39.7844 142.831 38.0236 142.875 36.2325Z" fill="#252122"/>
<path d="M95.6466 35.4887C95.6466 30.8136 95.6613 26.1385 95.6318 21.4482C95.6318 20.8107 95.7938 20.6285 96.3974 20.6589C97.4426 20.7044 98.5026 20.6892 99.5626 20.6589C99.9454 20.6437 100.137 20.7803 100.255 21.1598C100.402 21.6455 100.608 22.1009 100.755 22.5866C100.917 23.1027 101.153 23.2393 101.594 22.875C104.009 20.9017 106.806 20.1731 109.839 20.2339C110.472 20.249 110.663 20.416 110.648 21.0991C110.589 22.7384 110.604 24.3929 110.648 26.0322C110.663 26.7304 110.501 26.8974 109.839 26.7608C107.439 26.3206 105.069 26.3813 102.772 27.3983C102.301 27.6108 102.124 27.8385 102.124 28.3849C102.139 35.4432 102.124 42.5014 102.154 49.5444C102.154 50.1971 102.051 50.4703 101.329 50.44C99.6657 50.3792 98.0021 50.3944 96.3238 50.44C95.7643 50.4551 95.6318 50.3033 95.6318 49.7265C95.6613 44.9907 95.6466 40.2397 95.6466 35.4887Z" fill="#252122"/>
<path d="M131.642 41.1201C130.42 42.5166 129.022 43.7309 127.667 44.9907C126.857 45.7497 126.077 46.539 125.164 47.1765C125.15 44.2014 125.15 41.2112 125.135 38.2361C125.135 32.6351 125.135 27.0188 125.12 21.4178C125.12 20.841 125.238 20.6285 125.842 20.6437C127.019 20.6892 128.197 20.6892 129.36 20.6437C129.875 20.6285 130.111 20.7803 130.214 21.3116C130.302 21.7973 130.258 22.4955 130.656 22.6777C130.935 22.8143 131.465 22.3589 131.892 22.1616C134.425 21.0232 137.016 20.158 139.828 20.2642C142.551 20.3705 144.804 21.4633 146.526 23.6643C146.129 24.575 145.481 25.3036 144.907 26.0777C144.038 27.2617 143.199 28.476 142.183 29.5385C141.447 28.0662 140.254 27.2162 138.694 26.8974C136.427 26.4572 134.204 26.7001 132.01 27.3983C131.613 27.5197 131.613 27.7626 131.613 28.0814C131.627 32.4225 131.627 36.7789 131.642 41.1201Z" fill="#252122"/>
<path d="M86.6809 50.5007C85.7093 50.4703 84.7229 50.4248 83.7512 50.3944C83.7365 47.5712 83.7365 44.7327 83.7365 41.9094C83.7365 35.1092 83.7512 28.3091 83.7218 21.5089C83.7218 20.8562 83.8543 20.6437 84.5168 20.6589C86.1509 20.7196 87.7998 20.7196 89.434 20.6589C90.1112 20.6285 90.2289 20.8714 90.2289 21.5089C90.2142 30.8895 90.2142 40.2701 90.2289 49.6355C90.2289 50.2427 90.1112 50.4855 89.4781 50.4552C88.5359 50.4096 87.6084 50.4855 86.6809 50.5007Z" fill="#252122"/>
<path d="M83.1329 12.8569C83.1624 9.25948 86.1362 7.46836 89.2426 9.15322C89.9051 9.51752 90.3468 10.064 90.5676 10.7925C90.9798 12.2042 90.9798 13.631 90.5381 15.0427C90.1995 16.1052 89.4487 16.7731 88.4182 17.0463C87.4612 17.3043 86.4749 17.3043 85.5179 17.0463C84.3696 16.7275 83.6777 15.9686 83.3538 14.7998C83.1624 14.1775 83.1329 13.5248 83.1329 12.8569Z" fill="#252122"/>
<path d="M216.735 60.7161C216.735 59.5625 216.78 58.4089 216.721 57.2553C216.677 56.5116 217.133 56.7089 217.516 56.6634C217.957 56.633 218.237 56.6634 218.222 57.2705C218.178 59.1679 218.222 61.0653 218.193 62.9474C218.193 63.2358 218.414 63.7064 217.987 63.7823C217.53 63.8734 217.015 63.9796 216.632 63.3725C215.837 62.0822 214.939 60.8376 214.027 59.4866C213.85 60.1545 213.953 60.7465 213.938 61.3233C213.924 61.8849 213.879 62.4465 213.953 62.993C214.041 63.7216 213.747 63.8734 213.099 63.8582C212.554 63.843 212.392 63.7216 212.407 63.1448C212.437 61.2474 212.407 59.35 212.437 57.4678C212.437 57.2098 212.23 56.7544 212.657 56.7089C213.099 56.6634 213.629 56.4357 213.997 56.9973C214.763 58.1661 215.572 59.3197 216.353 60.4733C216.412 60.5644 216.485 60.6554 216.559 60.7617C216.603 60.7465 216.677 60.7313 216.735 60.7161Z" fill="#252122"/>
<path d="M210.523 60.4126C210.508 60.5947 210.493 60.9135 210.449 61.2322C210.213 62.9474 209.198 63.8582 207.446 63.9189C205.635 63.9796 204.56 63.1448 204.221 61.4295C204.118 60.959 204.118 60.4733 204.118 60.0027C204.177 57.4678 205.635 56.208 208.064 56.6026C209.698 56.8759 210.537 58.1205 210.523 60.4126ZM205.694 60.3063C205.738 60.6858 205.753 61.0652 205.841 61.4295C206.047 62.3403 206.562 62.7349 207.401 62.7198C208.196 62.6894 208.638 62.2796 208.83 61.3688C208.991 60.5947 208.991 59.8054 208.815 59.0313C208.623 58.1812 208.167 57.7866 207.401 57.7714C206.636 57.7562 206.135 58.1357 205.9 58.9554C205.753 59.3956 205.708 59.8358 205.694 60.3063Z" fill="#252122"/>
<path d="M150.427 60.3063C150.442 57.5741 151.723 56.3446 154.196 56.6026C155.477 56.7392 156.316 57.4527 156.655 58.7429C156.92 59.7599 156.92 60.792 156.64 61.809C156.228 63.2965 155.124 64.0251 153.431 63.9492C151.811 63.8733 150.869 63.084 150.56 61.5661C150.471 61.0956 150.413 60.6554 150.427 60.3063ZM152.003 60.3063C152.047 60.6858 152.076 61.0652 152.15 61.4295C152.356 62.3403 152.856 62.7349 153.71 62.7197C154.505 62.6894 154.947 62.2796 155.138 61.3688C155.3 60.5947 155.3 59.8054 155.124 59.0313C154.932 58.1812 154.476 57.7866 153.696 57.7714C152.93 57.7562 152.429 58.1357 152.194 58.9554C152.076 59.3956 152.017 59.8357 152.003 60.3063Z" fill="#252122"/>
<path d="M171.98 60.1393C171.98 60.0635 171.995 59.8661 172.01 59.6536C172.201 57.058 174.513 55.7071 176.795 56.891C178.296 57.6652 178.414 59.1224 178.37 60.5947C178.326 61.9456 177.943 63.16 176.574 63.6912C173.983 64.7082 171.995 63.2055 171.98 60.1393ZM176.78 60.1849C176.765 59.8054 176.765 59.3652 176.633 58.9098C176.427 58.2116 176.014 57.7866 175.263 57.7714C174.498 57.7562 173.997 58.1205 173.776 58.8643C173.497 59.7751 173.467 60.701 173.732 61.6269C173.968 62.401 174.439 62.735 175.205 62.7198C175.941 62.7198 176.382 62.3251 176.603 61.6269C176.75 61.1715 176.765 60.7162 176.78 60.1849Z" fill="#252122"/>
<path d="M162.294 60.9135C163.251 61.4903 163.486 62.5376 163.928 63.4635C163.987 63.5698 164.017 63.7064 163.899 63.7975C163.56 64.0859 162.323 63.7216 162.161 63.3117C161.985 62.8412 161.808 62.3706 161.617 61.9153C161.513 61.6572 161.337 61.4296 161.086 61.3081C160.571 61.0653 160.262 61.2626 160.247 61.8546C160.247 62.2037 160.247 62.568 160.247 62.9171C160.247 63.7671 159.673 64.1618 158.922 63.843C158.701 63.7519 158.731 63.5698 158.731 63.4028C158.731 61.3081 158.731 59.2134 158.716 57.1187C158.716 56.7241 158.878 56.6634 159.202 56.6634C159.953 56.6937 160.718 56.6634 161.469 56.7089C162.75 56.8 163.413 57.3009 163.604 58.2875C163.869 59.5474 163.516 60.2456 162.294 60.9135ZM160.233 58.9706C160.218 59.3652 160.144 60.109 160.733 60.0938C161.587 60.109 162.073 59.7143 162.088 58.9857C162.102 58.242 161.734 57.9232 160.807 57.9232C160.115 57.9536 160.218 58.5911 160.233 58.9706Z" fill="#252122"/>
<path d="M183.847 60.9286C184.818 61.551 185.039 62.5831 185.481 63.4787C185.54 63.5849 185.584 63.7064 185.466 63.8126C185.128 64.101 183.876 63.7519 183.714 63.3269C183.567 62.9322 183.434 62.5224 183.272 62.1278C183.169 61.9001 183.022 61.6876 182.875 61.4903C182.639 61.2019 182.301 61.2019 181.992 61.2777C181.756 61.3536 181.756 61.7028 181.756 61.9304C181.756 62.3555 181.741 62.7956 181.8 63.2055C181.903 63.9796 181.417 63.8278 180.99 63.8582C180.49 63.9037 180.254 63.8126 180.254 63.1751C180.298 61.2019 180.284 59.2438 180.254 57.2705C180.254 56.8151 180.372 56.6482 180.828 56.6634C181.565 56.7089 182.301 56.6634 183.022 56.7241C184.288 56.8151 184.936 57.3009 185.128 58.2268C185.422 59.5322 185.098 60.2152 183.847 60.9286ZM181.8 58.8947C181.8 58.9706 181.8 59.0161 181.8 59.092C181.815 59.4866 181.815 60.0938 182.286 60.0938C183.14 60.0938 183.626 59.6991 183.641 58.9706C183.641 58.242 183.243 57.8777 182.345 57.9232C181.83 57.9536 181.8 58.5 181.8 58.8947Z" fill="#252122"/>
<path d="M187.615 63.843C186.658 63.843 186.643 63.843 186.938 62.993C187.615 61.0501 188.322 59.1072 188.97 57.1643C189.146 56.6178 189.47 56.5875 189.912 56.6026C190.339 56.6178 190.677 56.5723 190.869 57.1339C191.575 59.1831 192.326 61.2019 193.107 63.2206C193.313 63.7671 193.165 63.8126 192.665 63.8582C191.87 63.9341 191.355 63.7216 191.222 62.8412C191.148 62.3099 190.707 62.1733 190.339 62.1733C190.177 62.1733 189.897 62.1733 189.72 62.1733C189.323 62.1733 188.646 62.3403 188.557 63.1296C188.498 63.8278 188.101 63.843 187.615 63.843ZM189.941 58.333C189.868 58.5759 189.838 58.6518 189.823 58.7125C189.691 59.1679 189.544 59.6232 189.411 60.0786C189.087 61.2777 188.793 61.1411 190.265 61.1715C190.633 61.1715 190.736 61.0804 190.618 60.7009C190.368 59.9724 190.177 59.2134 189.941 58.333Z" fill="#252122"/>
<path d="M165.753 60.2456C165.753 59.2286 165.768 58.2268 165.753 57.2098C165.753 56.8455 165.797 56.633 166.224 56.6634C167.078 56.7089 167.947 56.6634 168.801 56.7393C170.111 56.8759 170.715 57.6045 170.73 58.9402C170.744 60.2911 170.082 61.0956 168.816 61.293C168.742 61.3081 168.668 61.3081 168.595 61.3233C167.299 61.4599 167.299 61.4599 167.299 62.8564C167.299 63.7823 166.843 64.1162 166.003 63.8278C165.694 63.7216 165.782 63.4787 165.768 63.2662C165.753 62.2796 165.753 61.2626 165.753 60.2456ZM167.27 59.1375C167.27 60.2911 167.608 60.4429 168.536 60.1545C169.051 60.0027 169.272 59.3349 169.081 58.6822C168.86 57.9232 168.241 57.9384 167.652 57.9536C167.225 57.9688 167.284 58.7125 167.284 58.8947C167.284 59.0009 167.27 58.9857 167.27 59.1375Z" fill="#252122"/>
<path d="M147.321 63.9341C144.789 63.9341 143.67 62.8412 143.611 60.5036C143.537 58.1205 144.73 56.7089 146.953 56.5875C147.424 56.5571 147.88 56.5723 148.352 56.6482C148.72 56.7089 148.867 56.8759 148.882 57.2857C148.911 57.908 148.778 58.1964 148.131 57.9687C148.087 57.9536 148.028 57.9536 147.983 57.9536C145.76 57.7259 144.951 58.5911 145.245 60.9135C145.378 61.976 145.878 62.4769 146.909 62.5831C147.409 62.6287 147.88 62.5376 148.366 62.4921C148.558 62.4769 148.94 62.2037 148.911 62.6742C148.896 63.0537 149.264 63.6457 148.543 63.7823C148.072 63.8734 147.586 63.9037 147.321 63.9341Z" fill="#252122"/>
<path d="M197.332 60.9135C197.332 61.7028 197.288 62.4769 197.346 63.251C197.391 63.8885 197.037 63.8734 196.625 63.843C196.257 63.8126 195.786 64.0403 195.801 63.2814C195.845 61.7179 195.801 60.1545 195.83 58.5911C195.845 58.0598 195.683 57.8625 195.168 57.9384C194.976 57.9687 194.77 57.9384 194.579 57.9536C194.166 57.9839 193.828 58.0295 193.843 57.3768C193.843 56.8 194.004 56.6482 194.549 56.6634C195.948 56.7089 197.332 56.7089 198.73 56.6634C199.304 56.6482 199.275 56.9518 199.29 57.3464C199.304 57.7714 199.231 57.9687 198.745 57.9687C197.346 57.9536 197.346 57.9687 197.346 59.3956C197.332 59.8965 197.332 60.3974 197.332 60.9135Z" fill="#252122"/>
<path d="M200.865 60.2152C200.865 59.1982 200.894 58.1964 200.85 57.1794C200.821 56.5268 201.233 56.6482 201.572 56.6785C201.91 56.6937 202.382 56.4509 202.382 57.1794C202.352 59.2286 202.352 61.2778 202.382 63.3269C202.396 63.9644 202.013 63.8582 201.66 63.843C201.321 63.8278 200.836 64.0555 200.865 63.3421C200.88 62.2948 200.865 61.2626 200.865 60.2152Z" fill="#252122"/>
</svg>
